<?xml version="1.0" encoding="utf-8"?>
<!-- Generator: Adobe Illustrator 16.0.0, SVG Export Plug-In . SVG Version: 6.00 Build 0)  -->
<!DOCTYPE svg PUBLIC "-//W3C//DTD SVG 1.1//EN" "http://www.w3.org/Graphics/SVG/1.1/DTD/svg11.dtd">
<svg version="1.1" id="Camada_1" xmlns="http://www.w3.org/2000/svg" xmlns:xlink="http://www.w3.org/1999/xlink" x="0px" y="0px"
	 width="612px" height="792px" viewBox="0 0 612 792" enable-background="new 0 0 612 792" xml:space="preserve">
<linearGradient id="SVGID_1_" gradientUnits="userSpaceOnUse" x1="305.9995" y1="340.4717" x2="305.9995" y2="451.4722">
	<stop  offset="0.0443" style="stop-color:#00663A"/>
	<stop  offset="0.0709" style="stop-color:#00723C"/>
	<stop  offset="0.1022" style="stop-color:#007D3D"/>
	<stop  offset="0.1342" style="stop-color:#00843E"/>
	<stop  offset="0.1671" style="stop-color:#00883E"/>
	<stop  offset="0.2021" style="stop-color:#00893E"/>
	<stop  offset="0.4567" style="stop-color:#41AB34"/>
	<stop  offset="0.7251" style="stop-color:#51AF42"/>
	<stop  offset="0.9261" style="stop-color:#A0C96C"/>
</linearGradient>
<path fill="url(#SVGID_1_)" stroke="#000000" stroke-miterlimit="10" d="M508.5,439.483c0,6.622-6.436,11.988-14.379,11.988h-376.23
	c-7.945,0-14.391-5.366-14.391-11.988V352.46c0-6.622,6.446-11.988,14.391-11.988h376.23c7.943,0,14.379,5.367,14.379,11.988
	V439.483z"/>
<g>
	<path fill="#A8CA57" stroke="#000000" stroke-miterlimit="10" d="M172.498,370.306c0,0-9,3,0,7.333v25.667c0,0-10,2.666-2,8
		c0,0-0.334,8.334,4.333,7c0,0-2-4,3.333-6c0,0,1.667,14.666,4,9c0,0,3.333-6.334,1.333-9.668c0,0,5.333,13.334,5.667,1
		c0,0,10.333,9.002,6.667-0.332c0,0,1.334-7.666-3.333-8l-2.333-0.334l0.333-25.333c0,0,4.333,11.334,3.667-2.333
		c0,0,4.241,5.667,2.454-1c0,0,4.769-7-9.009-5H172.498z"/>
	<path fill="#A8CA57" stroke="#000000" stroke-miterlimit="10" d="M209.173,406.34c0,0-7.636,3.998,0,6.332
		c0,0-1.031,8.334,3.636,3.668c4.667-4.668-1.333,4.666,3.333,3c4.667-1.668,4,8.867,4-6.4c0,0,4.667,4.398,2.667-1.268
		c0,0,6.333-2-1.667-5.332l-0.667-11c0,0,0.425-4,4.712,0c0,0,4.953,6.333,11.287,9.333c0,0-0.333,6.666,6.667,6
		c0,0,1.999,11,3.333,5c0,0,7.333,9.668,8,1.334v-35c0,0,1.334-6.334,5.667-5.667c0,0,4.667-3.667-2-5h-11.667
		c0,0-7.999-0.334-4.666,3.333c0,0,0,12.667,3.333,4.667l0.667,7.888c0,0,0.667,5.112-17.667-9.888c0,0-1-7.016-16.667-6.008
		c0,0-6.334-0.991-7.667,2.675c0,0-5,4.333,0,2.333c0,0-5,16.334,3.333,6.667L209.173,406.34z"/>
	<path fill="#A8CA57" stroke="#000000" stroke-miterlimit="10" d="M272.35,370.306c0,0-9,3,0,7.333v25.667c0,0-10,2.666-2,8
		c0,0-0.334,8.334,4.333,7c0,0-2-4,3.333-6c0,0,1.667,14.666,4,9c0,0,3.333-6.334,1.333-9.668c0,0,5.333,13.334,5.667,1
		c0,0,10.333,9.002,6.667-0.332c0,0,1.334-7.666-3.333-8l-2.333-0.334l0.333-25.333c0,0,4.333,11.334,3.667-2.333
		c0,0,4.241,5.667,2.454-1c0,0,4.769-7-9.009-5H272.35z"/>
	<path fill="#A8CA57" stroke="#000000" stroke-miterlimit="10" d="M337.924,371.387c0,0-18-8.332-31.667,6.334
		c0,0-13.333,13.999,1.333,27.666c0,0,6,14.333,8.667,6c0,0-2,16,5,6c0,0,6.667,9.334,4.667-0.666c0,0,8,8.332,12-0.334
		s6,7.001,10.666-6.666c4.667-13.667,7.334-2.667,0-11.667l-1.666-2.866c0,0-2,6.866-8,4.866c0,0-4.667,3.601-18.667-4.866
		c0,0-9.667-12.467,1-16.467c0,0,7.999-6.001,17.667,6.666c0,0,1.666,5.667,3.333,0.667c0,0,3.667,4.333,6.667,4.333
		c0,0,4.333-3.332-0.667-7.666c0,0-0.333-7.667-2.667-7.667C345.59,375.054,346.256,369.72,337.924,371.387z"/>
	<path fill="#A8CA57" stroke="#000000" stroke-miterlimit="10" d="M359.35,370.306c0,0-9,3,0,7.333v25.667c0,0-10,2.666-2,8
		c0,0-0.334,8.334,4.333,7c0,0-2-4,3.333-6c0,0,1.667,14.666,4,9c0,0,3.334-6.334,1.334-9.668c0,0,5.333,13.334,5.666,1
		c0,0,10.334,9.002,6.667-0.332c0,0,1.334-7.666-3.333-8l-2.334-0.334l0.334-25.333c0,0,4.333,11.334,3.666-2.333
		c0,0,4.241,5.667,2.454-1c0,0,4.769-7-9.009-5H359.35z"/>
	<path fill="#A8CA57" stroke="#000000" stroke-miterlimit="10" d="M436.292,372.923c0,0-10.666-9.999-28.666-3.666
		c0,0-17.667,7.334-16,23c0,0-2.111,14.333,7.944,10.333c0,0,5.389,19.334,6.389,13.668c0,0,2.334,11.666,4.334-0.334
		c0,0,10.999,7.666,13.333-6c0,0,16.334,5.332,8.666-4c0,0,12,6.088,10.334-10.623C442.626,395.301,449.96,385.923,436.292,372.923z
		 M425.626,396.59c2.334,7.667-4,3-4,3c-5.334,10.668-3.609,0-3.609,0c-2.61,5.334-6.391-7-6.391-7c-3.333,6.333-3-6.667-3-6.667
		c-2-12.334,7-9.333,7-9.333c9,0,8.666,9.333,8.666,9.333C433.96,397.59,425.626,396.59,425.626,396.59z"/>
</g>
</svg>
